<?xml version="1.0" encoding="UTF-8"?>
<!DOCTYPE svg PUBLIC "-//W3C//DTD SVG 1.1//EN" "http://www.w3.org/Graphics/SVG/1.1/DTD/svg11.dtd">
<svg xmlns="http://www.w3.org/2000/svg" version="1.1" width="1792px" height="1024px" style="shape-rendering:geometricPrecision; text-rendering:geometricPrecision; image-rendering:optimizeQuality; fill-rule:evenodd; clip-rule:evenodd" xmlns:xlink="http://www.w3.org/1999/xlink">
<g><path style="opacity:1" fill="#000000" d="M -0.5,-0.5 C 596.833,-0.5 1194.17,-0.5 1791.5,-0.5C 1791.5,340.833 1791.5,682.167 1791.5,1023.5C 1194.17,1023.5 596.833,1023.5 -0.5,1023.5C -0.5,682.167 -0.5,340.833 -0.5,-0.5 Z"/></g>
<g><path style="opacity:1" fill="#f4f5f2" d="M 401.5,145.5 C 418.499,145.647 431.999,152.647 442,166.5C 451.022,186.13 447.189,202.963 430.5,217C 407.326,229.582 388.16,225.082 373,203.5C 363.02,174.461 372.52,155.128 401.5,145.5 Z"/></g>
<g><path style="opacity:1" fill="#f9faf7" d="M 1159.5,162.5 C 1198.11,160.554 1223.61,177.887 1236,214.5C 1236.67,222.5 1236.67,230.5 1236,238.5C 1226.5,246.33 1218.84,255.663 1213,266.5C 1212.81,268.9 1212.31,271.234 1211.5,273.5C 1195.85,253.454 1175.85,247.621 1151.5,256C 1133.66,264.528 1123.49,278.695 1121,298.5C 1099.81,293.932 1085.48,301.932 1078,322.5C 1077.28,326.145 1076.78,329.812 1076.5,333.5C 1071.16,333.666 1065.82,333.499 1060.5,333C 1058.62,315.468 1049.62,302.635 1033.5,294.5C 1029.79,273.074 1037.79,257.908 1057.5,249C 1085.24,243.709 1099.24,255.209 1099.5,283.5C 1101.92,283.292 1104.25,283.626 1106.5,284.5C 1107.87,278.11 1107.7,271.776 1106,265.5C 1102.73,259.236 1099.06,253.236 1095,247.5C 1091.86,219.895 1101.03,197.395 1122.5,180C 1133.6,171.451 1145.93,165.618 1159.5,162.5 Z"/></g>
<g><path style="opacity:1" fill="#f9faf8" d="M 912.5,181.5 C 926.302,179.365 936.469,184.365 943,196.5C 943.499,200.486 943.666,204.486 943.5,208.5C 949.195,206.676 954.195,207.843 958.5,212C 964.004,215.858 967.337,221.025 968.5,227.5C 934.167,227.5 899.833,227.5 865.5,227.5C 865.338,225.473 865.505,223.473 866,221.5C 870.512,215.815 876.345,212.481 883.5,211.5C 885.839,211.669 888.006,212.336 890,213.5C 887.929,196.075 895.429,185.408 912.5,181.5 Z"/></g>
<g><path style="opacity:1" fill="#fafbf9" d="M 1258.5,237.5 C 1287.59,236.046 1305.26,249.546 1311.5,278C 1311.36,278.772 1311.02,279.439 1310.5,280C 1296.27,285.896 1286.44,296.063 1281,310.5C 1278.68,318.128 1276.51,325.795 1274.5,333.5C 1267.85,332.248 1261.18,332.248 1254.5,333.5C 1257.12,312.497 1250.12,295.664 1233.5,283C 1227.47,280.295 1221.14,278.962 1214.5,279C 1213.98,278.439 1213.64,277.772 1213.5,277C 1220.83,268.018 1228.16,259.018 1235.5,250C 1242.41,244.217 1250.07,240.05 1258.5,237.5 Z"/></g>
<g><path style="opacity:1" fill="#fbfcfa" d="M 1165.5,260.5 C 1187.93,258.61 1202.43,268.277 1209,289.5C 1227,285.844 1239,292.844 1245,310.5C 1247.08,318.085 1246.91,325.585 1244.5,333C 1191.84,332.591 1139.18,332.425 1086.5,332.5C 1086.94,323.451 1090.27,315.617 1096.5,309C 1098.89,307.139 1101.55,305.806 1104.5,305C 1113.19,304.581 1121.85,304.581 1130.5,305C 1131,304.5 1131.5,304 1132,303.5C 1132.65,280.708 1143.82,266.374 1165.5,260.5 Z"/></g>
<g><path style="opacity:1" fill="#fafcfb" d="M 1320.5,283.5 C 1346.5,280.914 1365.33,291.248 1377,314.5C 1378.16,320.45 1379,326.45 1379.5,332.5C 1348.26,332.171 1317.09,332.504 1286,333.5C 1285.88,308.733 1297.38,292.067 1320.5,283.5 Z"/></g>
<g><path style="opacity:1" fill="#f8f9f8" d="M 1008.5,295.5 C 1032.37,296.362 1047.37,308.362 1053.5,331.5C 1053.29,332.086 1052.96,332.586 1052.5,333C 1018.17,333.017 983.836,332.851 949.5,332.5C 949.5,330.833 949.5,329.167 949.5,327.5C 955.842,327.334 962.175,327.5 968.5,328C 971.034,328.516 973.2,329.683 975,331.5C 975.667,330.833 976.333,330.167 977,329.5C 978.797,309.876 989.297,298.543 1008.5,295.5 Z"/></g>
<g><path style="opacity:1" fill="#eff0ee" d="M 1390.5,325.5 C 1397.83,325.5 1405.17,325.5 1412.5,325.5C 1413.32,330.189 1411.32,332.689 1406.5,333C 1398.75,333.896 1391.09,333.563 1383.5,332C 1384.46,328.202 1386.79,326.035 1390.5,325.5 Z"/></g>
<g><path style="opacity:1" fill="#fafbfa" d="M 946.5,369.5 C 947.873,369.343 949.207,369.51 950.5,370C 967.418,385.916 984.085,402.25 1000.5,419C 1003,420.833 1005.5,422.667 1008,424.5C 1009.65,427.778 1011.48,430.945 1013.5,434C 1017.09,434.207 1020.59,434.707 1024,435.5C 1024.33,443.167 1024.67,450.833 1025,458.5C 1027.41,459.274 1029.91,459.774 1032.5,460C 1038.45,463.808 1044.78,466.808 1051.5,469C 1051.4,474.447 1051.73,479.947 1052.5,485.5C 1063.26,487.586 1073.76,490.586 1084,494.5C 1084.46,505.28 1085.63,515.947 1087.5,526.5C 1096.72,528.301 1105.06,532.134 1112.5,538C 1111.6,540.4 1109.94,541.9 1107.5,542.5C 1098.8,537.658 1089.46,535.324 1079.5,535.5C 1078.07,523.87 1076.9,512.203 1076,500.5C 1065.23,498.267 1054.4,496.267 1043.5,494.5C 1043.5,487.5 1043.5,480.5 1043.5,473.5C 1035.03,470.621 1026.36,468.454 1017.5,467C 1016.68,458.578 1016.18,450.078 1016,441.5C 1008.44,441.23 1003.44,437.563 1001,430.5C 997.5,427.667 994,424.833 990.5,422C 977.054,407.221 962.887,393.054 948,379.5C 944.671,394.993 938.171,408.993 928.5,421.5C 931.187,425.021 934.353,428.021 938,430.5C 940.213,433.095 942.047,435.928 943.5,439C 934.507,449.135 923.84,457.302 911.5,463.5C 910.197,479.226 908.53,494.893 906.5,510.5C 895.358,516.906 884.025,523.073 872.5,529C 868.368,530.9 864.034,531.733 859.5,531.5C 859.667,547.503 859.5,563.503 859,579.5C 855.961,580.603 853.127,582.103 850.5,584C 836.265,595.23 822.932,607.563 810.5,621C 808.182,622.993 805.516,624.159 802.5,624.5C 802.334,620.154 802.501,615.821 803,611.5C 810.667,603.167 818.333,594.833 826,586.5C 829.172,582.159 831.839,577.492 834,572.5C 839.086,555.402 842.752,538.069 845,520.5C 839.094,525.54 832.594,529.706 825.5,533C 822.639,535.894 820.139,539.061 818,542.5C 815.477,553.219 810.144,562.219 802,569.5C 794.69,584.429 788.357,599.763 783,615.5C 775.973,616.62 769.473,619.12 763.5,623C 749.667,634.833 735.833,646.667 722,658.5C 727.803,640.759 733.803,623.092 740,605.5C 738.068,607.038 735.901,608.205 733.5,609C 723.494,610.966 713.494,610.966 703.5,609C 700.302,608.152 697.469,606.652 695,604.5C 685.933,632.368 677.266,660.368 669,688.5C 650.425,699.456 633.091,712.122 617,726.5C 617.377,720.993 618.71,715.66 621,710.5C 630.145,701.932 639.478,693.599 649,685.5C 652.114,676.822 655.614,668.322 659.5,660C 659,659.5 658.5,659 658,658.5C 644.059,669.774 629.559,680.274 614.5,690C 611.421,695.419 607.921,700.586 604,705.5C 591.605,718.564 578.605,730.897 565,742.5C 566.493,735.503 568.326,728.503 570.5,721.5C 570,721.167 569.5,720.833 569,720.5C 559.709,723.833 550.376,724.166 541,721.5C 538.553,729.731 534.553,737.064 529,743.5C 516.167,754.333 503.333,765.167 490.5,776C 481.327,774.761 472.66,771.761 464.5,767C 466.167,765.333 467.833,763.667 469.5,762C 489.335,749.917 509.002,737.584 528.5,725C 532.35,722.239 536.017,719.239 539.5,716C 544.051,714.785 548.718,714.119 553.5,714C 557.112,712.861 560.446,711.194 563.5,709C 577.5,696.667 591.5,684.333 605.5,672C 616.111,665.055 626.444,657.722 636.5,650C 652.812,634.023 669.479,618.356 686.5,603C 693.534,601.821 700.201,599.488 706.5,596C 718.64,586.093 731.64,577.426 745.5,570C 747.049,568.786 748.215,567.286 749,565.5C 754.41,548.936 760.41,532.603 767,516.5C 777.339,515.951 787.506,514.118 797.5,511C 799.901,510.205 802.068,509.038 804,507.5C 810.424,493.397 814.924,478.73 817.5,463.5C 833.232,461.72 848.565,458.22 863.5,453C 869.833,442.337 874,430.837 876,418.5C 886.404,413.099 896.571,407.266 906.5,401C 919.733,390.255 933.066,379.755 946.5,369.5 Z"/></g>
<g><path style="opacity:1" fill="#fafbf9" d="M 1288.5,453.5 C 1286.85,451.249 1284.69,449.582 1282,448.5C 1281.82,444.975 1281.32,441.641 1280.5,438.5C 1280.24,435.984 1279.41,433.65 1278,431.5C 1273.22,427.421 1271.38,422.255 1272.5,416C 1273.9,393.897 1284.9,378.564 1305.5,370C 1333.94,360.883 1355.11,369.383 1369,395.5C 1371.05,402.38 1371.72,409.38 1371,416.5C 1366.02,421.146 1361.36,426.146 1357,431.5C 1354.34,435.878 1354.17,440.211 1356.5,444.5C 1358.48,443.018 1360.32,441.351 1362,439.5C 1370.21,422.981 1383.38,415.814 1401.5,418C 1416.65,422.632 1424.31,432.799 1424.5,448.5C 1417.78,450.371 1412.62,454.371 1409,460.5C 1404.69,468.725 1402.19,477.392 1401.5,486.5C 1396.5,486.5 1391.5,486.5 1386.5,486.5C 1387.08,475.722 1384.58,465.722 1379,456.5C 1372.17,449.158 1363.67,445.158 1353.5,444.5C 1347.17,433.586 1337.67,428.586 1325,429.5C 1307.35,429.812 1296.01,438.478 1291,455.5C 1290.29,454.619 1289.46,453.953 1288.5,453.5 Z"/></g>
<g><path style="opacity:1" fill="#f9faf8" d="M 278.5,558.5 C 278.5,557.833 278.5,557.167 278.5,556.5C 279.794,555.71 280.961,554.71 282,553.5C 289.753,530.868 305.587,520.701 329.5,523C 344.1,527.261 354.767,536.261 361.5,550C 362.833,550.667 364.167,550.667 365.5,550C 366.992,545.469 366.159,541.303 363,537.5C 358.114,529.444 351.281,523.777 342.5,520.5C 339.738,494.408 351.571,480.075 378,477.5C 397.274,479.954 406.107,490.954 404.5,510.5C 406.792,510.756 408.959,510.423 411,509.5C 411.87,503.083 411.536,496.749 410,490.5C 407.698,485.882 405.032,481.548 402,477.5C 399.617,438.877 416.783,413.377 453.5,401C 489.431,393.716 515.264,406.549 531,439.5C 534.074,448.6 535.074,457.933 534,467.5C 527.024,474.144 520.357,481.144 514,488.5C 511.031,493.013 510.864,497.513 513.5,502C 515.387,502.163 516.887,501.329 518,499.5C 527.264,480.397 542.431,469.731 563.5,467.5C 581.387,469.026 593.887,478.026 601,494.5C 602.225,499.085 602.725,503.752 602.5,508.5C 587.836,513.424 578.336,523.424 574,538.5C 572.058,545.028 571.225,551.695 571.5,558.5C 564.5,558.5 557.5,558.5 550.5,558.5C 552.161,541.317 547.161,526.483 535.5,514C 527.907,509.136 519.574,506.469 510.5,506C 500.404,486.39 484.404,479.057 462.5,484C 449.583,488.547 439.083,496.381 431,507.5C 428.487,512.621 426.653,517.954 425.5,523.5C 407.216,518.725 393.716,524.725 385,541.5C 382.618,546.91 381.451,552.576 381.5,558.5C 347.167,558.5 312.833,558.5 278.5,558.5 Z"/></g>
<g><path style="opacity:1" fill="#fafbfb" d="M 1279.5,450.5 C 1284.58,451.912 1287.58,455.245 1288.5,460.5C 1287.5,460.5 1286.5,460.5 1285.5,460.5C 1275.38,461.817 1267.54,466.817 1262,475.5C 1260.09,478.206 1259.26,481.206 1259.5,484.5C 1235.74,485.827 1212.07,485.827 1188.5,484.5C 1188.83,483.167 1189.17,481.833 1189.5,480.5C 1193.86,465.481 1203.86,458.647 1219.5,460C 1224.66,461.834 1229.33,464.501 1233.5,468C 1236.16,472.5 1239.82,475.666 1244.5,477.5C 1244.48,475.073 1243.98,472.74 1243,470.5C 1239,465.167 1234.33,460.5 1229,456.5C 1227.85,439.825 1235.35,429.159 1251.5,424.5C 1267.02,425.525 1274.86,433.858 1275,449.5C 1276.36,450.38 1277.86,450.714 1279.5,450.5 Z"/></g>
<g><path style="opacity:1" fill="#fafbfa" d="M 1282.5,467.5 C 1287.01,467.116 1291.34,466.449 1295.5,465.5C 1296.5,465.586 1297.33,465.252 1298,464.5C 1300.82,446.332 1311.15,436.666 1329,435.5C 1337.36,437.536 1343.69,442.202 1348,449.5C 1348.49,451.134 1348.66,452.801 1348.5,454.5C 1363.48,451.241 1373.32,456.908 1378,471.5C 1378.5,476.489 1378.67,481.489 1378.5,486.5C 1341.83,486.5 1305.17,486.5 1268.5,486.5C 1268.76,480.143 1271.09,474.643 1275.5,470C 1277.65,468.589 1279.98,467.755 1282.5,467.5 Z"/></g>
<g><path style="opacity:1" fill="#f6f8f7" d="M 1436.5,449.5 C 1456.17,447.87 1468.17,456.537 1472.5,475.5C 1476.47,474.379 1480.14,472.546 1483.5,470C 1492.49,468.911 1499.66,472.078 1505,479.5C 1506.31,481.686 1506.48,483.853 1505.5,486C 1473.82,486.788 1442.15,486.621 1410.5,485.5C 1409.88,466.724 1418.55,454.724 1436.5,449.5 Z"/></g>
<g><path style="opacity:1" fill="#717674" d="M 1280.5,438.5 C 1281.32,441.641 1281.82,444.975 1282,448.5C 1284.69,449.582 1286.85,451.249 1288.5,453.5C 1289.8,457.382 1290.47,461.382 1290.5,465.5C 1292.17,465.5 1293.83,465.5 1295.5,465.5C 1291.34,466.449 1287.01,467.116 1282.5,467.5C 1284.09,466.781 1285.59,465.781 1287,464.5C 1287.41,464.957 1287.91,465.291 1288.5,465.5C 1289.43,464.311 1289.76,462.978 1289.5,461.5C 1287.9,461.768 1286.57,461.434 1285.5,460.5C 1286.5,460.5 1287.5,460.5 1288.5,460.5C 1287.58,455.245 1284.58,451.912 1279.5,450.5C 1280.43,446.6 1280.76,442.6 1280.5,438.5 Z"/></g>
<g><path style="opacity:1" fill="#6c6a67" d="M 1177.5,481.5 C 1175.47,481.338 1173.47,481.505 1171.5,482C 1170.17,482.667 1170.17,483.333 1171.5,484C 1175.36,485.354 1179.36,485.854 1183.5,485.5C 1183.5,484.5 1183.5,483.5 1183.5,482.5C 1184.15,482.804 1184.82,483.137 1185.5,483.5C 1186.85,482.476 1188.19,481.476 1189.5,480.5C 1189.17,481.833 1188.83,483.167 1188.5,484.5C 1187.66,484.842 1187.33,485.508 1187.5,486.5C 1182.16,486.666 1176.82,486.499 1171.5,486C 1168.81,485.218 1167.81,483.718 1168.5,481.5C 1171.63,480.217 1174.63,480.217 1177.5,481.5 Z"/></g>
<g><path style="opacity:1" fill="#afaea9" d="M 1177.5,481.5 C 1179.74,481.205 1181.74,481.539 1183.5,482.5C 1183.5,483.5 1183.5,484.5 1183.5,485.5C 1179.36,485.854 1175.36,485.354 1171.5,484C 1170.17,483.333 1170.17,482.667 1171.5,482C 1173.47,481.505 1175.47,481.338 1177.5,481.5 Z"/></g>
<g><path style="opacity:1" fill="#c2c9c4" d="M 1188.5,484.5 C 1212.07,485.827 1235.74,485.827 1259.5,484.5C 1235.86,486.49 1211.86,487.157 1187.5,486.5C 1187.33,485.508 1187.66,484.842 1188.5,484.5 Z"/></g>
<g><path style="opacity:1" fill="#f9fbf9" d="M 468.5,490.5 C 488.282,488.521 500.282,497.021 504.5,516C 524.993,512.668 537.493,521.168 542,541.5C 542.499,547.157 542.666,552.824 542.5,558.5C 491.793,558.421 441.126,558.421 390.5,558.5C 390.662,541.852 398.829,532.186 415,529.5C 421.541,530.309 428.041,531.309 434.5,532.5C 435.875,510.457 447.208,496.457 468.5,490.5 Z"/></g>
<g><path style="opacity:1" fill="#f7f8f7" d="M 945.5,508.5 C 947.124,508.36 948.29,509.027 949,510.5C 949.667,518.167 949.667,525.833 949,533.5C 936.595,544.95 924.095,556.284 911.5,567.5C 905.816,573.35 900.316,579.35 895,585.5C 896.018,577.881 897.184,570.214 898.5,562.5C 910.185,552.982 920.685,542.315 930,530.5C 935.386,523.287 940.553,515.954 945.5,508.5 Z"/></g>
<g><path style="opacity:1" fill="#fafbfa" d="M 614.5,510.5 C 640.129,508.056 657.629,518.723 667,542.5C 667.498,545.817 667.665,549.15 667.5,552.5C 675.893,552.17 684.227,552.67 692.5,554C 694.155,555.444 694.822,557.278 694.5,559.5C 656.506,558.697 618.506,558.364 580.5,558.5C 579.576,533.643 590.91,517.643 614.5,510.5 Z"/></g>
<g><path style="opacity:1" fill="#6d7776" d="M 274.5,554.5 C 270.818,554.335 267.152,554.501 263.5,555C 263.043,555.414 262.709,555.914 262.5,556.5C 266.795,557.661 271.129,557.828 275.5,557C 276.252,556.329 276.586,555.496 276.5,554.5C 277.5,554.833 278.167,555.5 278.5,556.5C 278.5,557.167 278.5,557.833 278.5,558.5C 270.239,560.138 261.906,560.638 253.5,560C 259.426,553.767 266.426,551.934 274.5,554.5 Z"/></g>
<g><path style="opacity:1" fill="#afbab9" d="M 274.5,554.5 C 275.167,554.5 275.833,554.5 276.5,554.5C 276.586,555.496 276.252,556.329 275.5,557C 271.129,557.828 266.795,557.661 262.5,556.5C 262.709,555.914 263.043,555.414 263.5,555C 267.152,554.501 270.818,554.335 274.5,554.5 Z"/></g>
<g><path style="opacity:1" fill="#f9faf9" d="M 1118.5,540.5 C 1119.55,540.351 1120.55,540.517 1121.5,541C 1133.29,550.549 1144.62,560.549 1155.5,571C 1159.42,573.877 1163.58,576.377 1168,578.5C 1169.33,577.833 1170.67,577.167 1172,576.5C 1171.98,580.2 1171.82,583.533 1171.5,586.5C 1177.11,591.647 1183.44,595.814 1190.5,599C 1194.02,600.674 1197.69,601.84 1201.5,602.5C 1201.8,606.105 1202.97,609.439 1205,612.5C 1211.72,619.858 1219.06,626.525 1227,632.5C 1228.77,636.594 1227.27,638.094 1222.5,637C 1214.91,631.622 1207.41,626.122 1200,620.5C 1198.36,616.563 1196.52,612.73 1194.5,609C 1186.39,604.464 1177.72,601.63 1168.5,600.5C 1167.73,594.854 1167.07,589.187 1166.5,583.5C 1161.04,582.957 1156.04,581.124 1151.5,578C 1139.71,568.541 1128.21,558.708 1117,548.5C 1112.93,559.373 1108.1,569.873 1102.5,580C 1105.6,583.1 1108.77,586.267 1112,589.5C 1112.67,590.167 1112.67,590.833 1112,591.5C 1102.62,599.215 1092.45,605.715 1081.5,611C 1077.82,611.835 1074.15,612.668 1070.5,613.5C 1069.1,623.47 1067.93,633.47 1067,643.5C 1058.25,648.041 1049.25,652.041 1040,655.5C 1031.13,668.203 1018.96,675.203 1003.5,676.5C 1001.58,688.346 997.411,699.346 991,709.5C 989.167,711.333 987.333,713.167 985.5,715C 972.844,718.274 960.51,722.441 948.5,727.5C 947.998,722.966 948.998,718.632 951.5,714.5C 951.167,714.167 950.833,713.833 950.5,713.5C 944.467,713.782 938.3,713.449 932,712.5C 925.578,725.843 918.744,739.01 911.5,752C 906.124,752.785 900.791,753.785 895.5,755C 889.782,755.516 884.115,755.516 878.5,755C 872.906,762.598 866.573,769.598 859.5,776C 848.046,784.453 836.879,793.286 826,802.5C 825.187,804.436 824.687,806.436 824.5,808.5C 804.85,809.574 785.183,810.074 765.5,810C 766.047,809.075 766.713,808.242 767.5,807.5C 803.668,785.25 839.668,762.75 875.5,740C 885.888,731.946 896.554,724.279 907.5,717C 914.5,710.667 921.5,704.333 928.5,698C 939.5,694.333 950.5,690.667 961.5,687C 964.787,683.707 967.287,679.873 969,675.5C 973.117,665.601 976.95,655.601 980.5,645.5C 994.06,642.702 1007.06,638.202 1019.5,632C 1022.11,630.062 1023.94,627.562 1025,624.5C 1027.31,616.562 1029.81,608.729 1032.5,601C 1038.58,600.862 1044.58,600.196 1050.5,599C 1053.83,593 1057.17,587 1060.5,581C 1067.99,577.759 1074.99,573.759 1081.5,569C 1091.89,560.946 1102.55,553.279 1113.5,546C 1115.37,544.296 1117.04,542.463 1118.5,540.5 Z"/></g>
<g><path style="opacity:1" fill="#fafafa" d="M 1257.5,621.5 C 1261.47,622.621 1265.14,624.454 1268.5,627C 1280.6,635.468 1292.43,644.301 1304,653.5C 1308,658.833 1312,664.167 1316,669.5C 1316.5,674.489 1316.67,679.489 1316.5,684.5C 1315.18,684.67 1314.01,684.337 1313,683.5C 1312.83,679.281 1311.83,675.281 1310,671.5C 1305.65,667.318 1301.48,662.985 1297.5,658.5C 1285.78,650.616 1274.78,641.782 1264.5,632C 1262.09,630.115 1259.42,629.448 1256.5,630C 1252.42,635.994 1249.25,642.494 1247,649.5C 1246.33,651.5 1246.33,653.5 1247,655.5C 1248.91,658.298 1249.91,661.298 1250,664.5C 1246.41,667.046 1242.58,669.213 1238.5,671C 1229.52,673.947 1220.68,677.114 1212,680.5C 1214.04,690.322 1214.54,700.322 1213.5,710.5C 1202.6,714.952 1192.26,720.452 1182.5,727C 1176.96,728.812 1171.29,729.979 1165.5,730.5C 1165.86,736.593 1165.36,742.593 1164,748.5C 1155.59,751.858 1146.93,754.192 1138,755.5C 1137.04,762.063 1134.7,768.063 1131,773.5C 1124.43,783.407 1117.1,792.741 1109,801.5C 1107.69,803.955 1106.52,806.455 1105.5,809C 1085.5,809.5 1065.5,809.667 1045.5,809.5C 1045.34,807.473 1045.5,805.473 1046,803.5C 1051.91,795.67 1056.25,787.003 1059,777.5C 1064.29,771.596 1068.62,765.263 1072,758.5C 1057.92,763.437 1043.58,764.77 1029,762.5C 1025.5,769.498 1021.5,776.165 1017,782.5C 1010.33,789.167 1003.67,795.833 997,802.5C 996.503,804.81 996.337,807.143 996.5,809.5C 980.163,809.333 963.83,809.5 947.5,810C 940.426,810.249 933.426,811.082 926.5,812.5C 925.5,812.167 924.5,811.833 923.5,811.5C 935.443,802.188 947.776,793.355 960.5,785C 969.438,781.515 978.438,778.182 987.5,775C 997.101,767.402 1006.1,759.069 1014.5,750C 1029.81,750.037 1045.15,749.37 1060.5,748C 1069.32,738.854 1076.98,728.854 1083.5,718C 1100.79,714.785 1118.12,711.785 1135.5,709C 1139.01,702.649 1143.67,697.316 1149.5,693C 1159.5,687.333 1169.5,681.667 1179.5,676C 1193.07,664.436 1207.74,654.436 1223.5,646C 1235.43,638.547 1246.76,630.38 1257.5,621.5 Z"/></g>
<g><path style="opacity:1" fill="#f6f6f6" d="M 1083.5,636.5 C 1088.61,636.776 1091.11,639.443 1091,644.5C 1072.92,657.909 1055.42,672.075 1038.5,687C 1036.98,688.009 1035.31,688.509 1033.5,688.5C 1032.98,684.281 1034.15,680.614 1037,677.5C 1052.77,663.884 1068.27,650.217 1083.5,636.5 Z"/></g>
<g><path style="opacity:1" fill="#d6d9d8" d="M 1319.5,680.5 C 1322.19,680.336 1324.85,680.503 1327.5,681C 1340.23,685.434 1353.23,688.767 1366.5,691C 1352.39,695.414 1339.39,693.414 1327.5,685C 1324.83,684.433 1322.17,683.933 1319.5,683.5C 1319.5,682.5 1319.5,681.5 1319.5,680.5 Z"/></g>
<g><path style="opacity:1" fill="#7c7b7b" d="M 1369.5,713.5 C 1369.5,714.167 1369.17,714.5 1368.5,714.5C 1368.33,708.824 1368.5,703.157 1369,697.5C 1370.2,702.865 1370.36,708.198 1369.5,713.5 Z"/></g>
<g><path style="opacity:1" fill="#f6f7f7" d="M 1237.5,711.5 C 1238.79,712.058 1239.62,713.058 1240,714.5C 1240.9,717.49 1241.73,720.49 1242.5,723.5C 1224.31,737.525 1205.98,751.359 1187.5,765C 1186.83,765.667 1186.17,765.667 1185.5,765C 1183.96,762.687 1183.46,760.187 1184,757.5C 1193.05,749.398 1202.55,741.898 1212.5,735C 1221.03,727.3 1229.36,719.467 1237.5,711.5 Z"/></g>
<g><path style="opacity:1" fill="#e4e2e3" d="M 1369.5,713.5 C 1370.47,715.25 1371.81,716.75 1373.5,718C 1369.38,721.429 1367.72,720.262 1368.5,714.5C 1369.17,714.5 1369.5,714.167 1369.5,713.5 Z"/></g>
<g><path style="opacity:1" fill="#181717" d="M 1149.5,721.5 C 1148.6,727.771 1145.6,733.271 1140.5,738C 1125.83,747.333 1111.17,756.667 1096.5,766C 1093.33,768.124 1090,768.624 1086.5,767.5C 1090.96,759.413 1095.29,751.246 1099.5,743C 1105.2,741.492 1110.86,739.825 1116.5,738C 1127.44,732.199 1138.44,726.699 1149.5,721.5 Z"/></g>
<g><path style="opacity:1" fill="#f5f6f6" d="M 786.5,732.5 C 787.75,732.577 788.583,733.244 789,734.5C 790.205,736.534 790.372,738.534 789.5,740.5C 775.493,750.175 760.826,758.841 745.5,766.5C 743.701,762.475 744.701,759.308 748.5,757C 761.095,748.548 773.761,740.381 786.5,732.5 Z"/></g>
<g><path style="opacity:1" fill="#f9f9f8" d="M 796.5,674.5 C 797.873,674.343 799.207,674.51 800.5,675C 813.023,681.424 824.689,689.09 835.5,698C 851.668,703.836 867.335,710.836 882.5,719C 884.09,720.046 885.59,721.213 887,722.5C 887.923,725.278 887.089,727.278 884.5,728.5C 869.924,719.545 854.257,713.378 837.5,710C 836.5,708.333 835.5,706.667 834.5,705C 822.668,697.25 810.668,689.75 798.5,682.5C 794.564,688.268 791.564,694.601 789.5,701.5C 790.626,704.371 791.793,707.038 793,709.5C 783.86,715.216 774.027,719.383 763.5,722C 762.695,726.749 762.195,731.582 762,736.5C 752.696,742.74 742.529,746.573 731.5,748C 728.717,755.9 725.384,763.567 721.5,771C 716.65,772.838 711.817,774.672 707,776.5C 706.667,773.5 706.333,770.5 706,767.5C 693.955,772.737 681.455,776.57 668.5,779C 665.567,780.271 662.901,781.938 660.5,784C 651.477,792.024 642.81,800.358 634.5,809C 618.762,809.346 603.096,810.012 587.5,811C 595.149,804.842 603.149,799.175 611.5,794C 632.664,781.919 653.664,769.586 674.5,757C 689.819,745.67 705.819,735.336 722.5,726C 747.07,708.581 771.737,691.414 796.5,674.5 Z"/></g>
<g><path style="opacity:1" fill="#c8cdc8" d="M 405.5,745.5 C 414.938,749.706 424.271,754.206 433.5,759C 444.366,762.62 455.033,766.62 465.5,771C 458.631,770.939 451.964,769.606 445.5,767C 430.944,762.428 416.944,756.595 403.5,749.5C 404.6,748.395 405.267,747.062 405.5,745.5 Z"/></g>
<g><path style="opacity:1" fill="#f6f8f7" d="M 405.5,745.5 C 405.267,747.062 404.6,748.395 403.5,749.5C 400.207,757.419 396.374,765.086 392,772.5C 392,774.5 392,776.5 392,778.5C 380.365,785.153 368.699,791.819 357,798.5C 356.333,796.167 356.333,793.833 357,791.5C 364.797,786.351 372.963,781.851 381.5,778C 380.892,777.13 380.059,776.63 379,776.5C 365.291,780.292 352.125,785.458 339.5,792C 333.297,797.038 327.63,802.538 322.5,808.5C 311.891,810.207 301.225,810.707 290.5,810C 294.193,806.647 298.193,803.647 302.5,801C 324.011,789.744 345.677,778.744 367.5,768C 379.372,761.455 390.705,754.121 401.5,746C 402.793,745.51 404.127,745.343 405.5,745.5 Z"/></g>
<g><path style="opacity:1" fill="#f4f6f5" d="M 1405.5,722.5 C 1408.16,724.363 1409.66,727.03 1410,730.5C 1412.83,732.667 1415.67,734.833 1418.5,737C 1416.5,737.333 1414.5,737.667 1412.5,738C 1415.83,738.333 1419.17,738.667 1422.5,739C 1428.1,743.106 1434.26,744.273 1441,742.5C 1444.16,743.332 1447.33,744.166 1450.5,745C 1453.56,749.172 1456.06,753.672 1458,758.5C 1467.85,772.009 1480.68,781.509 1496.5,787C 1504.17,792.999 1512.84,796.665 1522.5,798C 1532.57,802.026 1542.9,805.693 1553.5,809C 1537.17,809.667 1520.83,809.667 1504.5,809C 1499.83,803 1494.5,797.667 1488.5,793C 1475.55,784.612 1462.71,776.112 1450,767.5C 1449.81,761.252 1449.31,755.085 1448.5,749C 1435.26,748.178 1422.09,748.345 1409,749.5C 1407.73,740.514 1406.56,731.514 1405.5,722.5 Z"/></g>
<g><path style="opacity:1" fill="#6e6f70" d="M 1007.5,817.5 C 1022.23,817.068 1036.89,817.568 1051.5,819C 1034.83,819.667 1018.17,819.667 1001.5,819C 1003.71,818.809 1005.71,818.309 1007.5,817.5 Z"/></g>
<g><path style="opacity:1" fill="#818183" d="M 1141.5,817.5 C 1243.16,817.881 1344.83,817.881 1446.5,817.5C 1386.33,818.333 1326,818.833 1265.5,819C 1269.03,819.179 1272.36,819.679 1275.5,820.5C 1238,820.832 1200.66,820.498 1163.5,819.5C 1172.84,819.666 1182.17,819.5 1191.5,819C 1174.66,818.832 1157.99,818.332 1141.5,817.5 Z"/></g>
<g><path style="opacity:1" fill="#b3b2b5" d="M 1575.5,817.5 C 1580.51,817.334 1585.51,817.501 1590.5,818C 1591.74,818.232 1592.74,818.732 1593.5,819.5C 1587.82,819.666 1582.16,819.499 1576.5,819C 1575.94,818.617 1575.61,818.117 1575.5,817.5 Z"/></g>
<g><path style="opacity:1" fill="#5a5a5a" d="M 347.5,819.5 C 384.532,818.923 421.532,818.59 458.5,818.5C 464.115,819.289 469.782,819.789 475.5,820C 432.823,820.777 390.157,820.61 347.5,819.5 Z"/></g>
<g><path style="opacity:1" fill="#585b5a" d="M 1117.5,817.5 C 1118.83,818.167 1120.17,818.833 1121.5,819.5C 1112.83,819.666 1104.16,819.5 1095.5,819C 1102.85,818.583 1110.18,818.083 1117.5,817.5 Z"/></g>
<g><path style="opacity:1" fill="#a6a7a8" d="M 1117.5,817.5 C 1125.5,817.5 1133.5,817.5 1141.5,817.5C 1157.99,818.332 1174.66,818.832 1191.5,819C 1182.17,819.5 1172.84,819.666 1163.5,819.5C 1149.5,819.5 1135.5,819.5 1121.5,819.5C 1120.17,818.833 1118.83,818.167 1117.5,817.5 Z"/></g>
<g><path style="opacity:1" fill="#b9bbbc" d="M 1446.5,817.5 C 1448.5,817.5 1450.5,817.5 1452.5,817.5C 1468.84,817.333 1485.17,817.5 1501.5,818C 1496.65,818.174 1491.98,818.674 1487.5,819.5C 1416.84,820.446 1346.17,820.779 1275.5,820.5C 1272.36,819.679 1269.03,819.179 1265.5,819C 1326,818.833 1386.33,818.333 1446.5,817.5 Z"/></g>
<g><path style="opacity:1" fill="#76787b" d="M 1452.5,817.5 C 1493.33,816.484 1534.33,816.484 1575.5,817.5C 1575.61,818.117 1575.94,818.617 1576.5,819C 1582.16,819.499 1587.82,819.666 1593.5,819.5C 1559.05,820.735 1523.71,820.735 1487.5,819.5C 1491.98,818.674 1496.65,818.174 1501.5,818C 1485.17,817.5 1468.84,817.333 1452.5,817.5 Z"/></g>
<g><path style="opacity:1" fill="#f2f3f2" d="M 735.5,823.5 C 1025.17,824.121 1314.83,824.621 1604.5,825C 1610.12,827.19 1615.95,828.357 1622,828.5C 1631.62,827.216 1641.12,825.549 1650.5,823.5C 1650.63,826.608 1649.29,828.608 1646.5,829.5C 1634.83,829.333 1623.16,829.5 1611.5,830C 1609.93,830.608 1608.6,831.442 1607.5,832.5C 1595.58,833.313 1583.58,833.813 1571.5,834C 1330.49,834.254 1089.49,834.42 848.5,834.5C 729.334,833.667 610.001,833.167 490.5,833C 491.905,831.731 493.571,831.231 495.5,831.5C 495.5,830.167 495.5,828.833 495.5,827.5C 506.182,826.183 519.515,825.349 535.5,825C 602.335,824.833 669.001,824.333 735.5,823.5 Z"/></g>
<g><path style="opacity:1" fill="#dedfdc" d="M 735.5,823.5 C 669.001,824.333 602.335,824.833 535.5,825C 519.515,825.349 506.182,826.183 495.5,827.5C 495.5,828.833 495.5,830.167 495.5,831.5C 493.571,831.231 491.905,831.731 490.5,833C 610.001,833.167 729.334,833.667 848.5,834.5C 628.166,834.667 407.833,834.5 187.5,834C 172.152,833.221 156.819,832.221 141.5,831C 138.287,830.734 136.287,829.068 135.5,826C 135.905,825.055 136.572,824.388 137.5,824C 336.83,823.953 536.163,823.787 735.5,823.5 Z"/></g>
<g><path style="opacity:1" fill="#adaea8" d="M 1646.5,829.5 C 1633.66,830.7 1620.66,831.7 1607.5,832.5C 1608.6,831.442 1609.93,830.608 1611.5,830C 1623.16,829.5 1634.83,829.333 1646.5,829.5 Z"/></g>
<g><path style="opacity:1" fill="#fbfbfb" d="M 1579.5,851.5 C 1577.3,851.396 1575.3,850.73 1573.5,849.5C 1346.33,848.5 1119,848.167 891.5,848.5C 807.331,848.231 723.331,848.231 639.5,848.5C 511.833,848.5 384.167,848.5 256.5,848.5C 239.83,848.333 223.163,848.5 206.5,849C 204.833,850 203.167,851 201.5,852C 202.448,852.483 203.448,852.649 204.5,852.5C 280.161,853.425 355.828,853.758 431.5,853.5C 803.682,853.737 1175.68,853.404 1547.5,852.5C 1558.17,852.5 1568.83,852.5 1579.5,852.5C 1585.26,852.886 1590.93,853.719 1596.5,855C 1597.97,858.552 1596.64,860.218 1592.5,860C 1569.5,860.333 1546.5,860.667 1523.5,861C 1088.83,861.667 654.167,861.667 219.5,861C 207.486,860.672 195.486,860.172 183.5,859.5C 183.137,857.089 184.137,855.589 186.5,855C 191.238,854.481 195.905,853.648 200.5,852.5C 200.756,850.208 200.423,848.041 199.5,846C 190.234,844.614 180.9,844.114 171.5,844.5C 170.048,843.698 168.382,843.198 166.5,843C 168.257,841.25 170.257,840.084 172.5,839.5C 184.185,839.278 195.851,839.612 207.5,840.5C 356.825,839.704 506.159,839.038 655.5,838.5C 975.504,839.636 1295.5,839.803 1615.5,839C 1616.83,840.333 1616.83,841.667 1615.5,843C 1604.93,844.287 1594.26,844.954 1583.5,845C 1580.78,846.272 1579.44,848.439 1579.5,851.5 Z"/></g>
<g><path style="opacity:1" fill="#abaaa4" d="M 172.5,839.5 C 170.257,840.084 168.257,841.25 166.5,843C 168.382,843.198 170.048,843.698 171.5,844.5C 169.5,844.5 167.5,844.5 165.5,844.5C 165.815,840.2 168.149,838.533 172.5,839.5 Z"/></g>
<g><path style="opacity:1" fill="#7e7979" d="M 639.5,848.5 C 723.331,848.231 807.331,848.231 891.5,848.5C 829.336,849.499 767.002,849.832 704.5,849.5C 683.006,848.503 661.34,848.169 639.5,848.5 Z"/></g>
<g><path style="opacity:1" fill="#2c2421" d="M 256.5,848.5 C 323.999,849.333 391.665,849.833 459.5,850C 449.972,850.341 440.638,851.175 431.5,852.5C 355.66,852.412 279.993,852.412 204.5,852.5C 203.448,852.649 202.448,852.483 201.5,852C 203.167,851 204.833,850 206.5,849C 223.163,848.5 239.83,848.333 256.5,848.5 Z"/></g>
<g><path style="opacity:1" fill="#2c2623" d="M 891.5,848.5 C 1119,848.167 1346.33,848.5 1573.5,849.5C 1571.6,850.805 1569.27,851.471 1566.5,851.5C 1541.52,851.223 1516.52,851.223 1491.5,851.5C 1459.5,851.5 1427.5,851.5 1395.5,851.5C 1094.16,851.878 792.831,851.378 491.5,850C 562.499,849.5 633.499,849.333 704.5,849.5C 767.002,849.832 829.336,849.499 891.5,848.5 Z"/></g>
<g><path style="opacity:1" fill="#443d39" d="M 256.5,848.5 C 384.167,848.5 511.833,848.5 639.5,848.5C 661.34,848.169 683.006,848.503 704.5,849.5C 633.499,849.333 562.499,849.5 491.5,850C 792.831,851.378 1094.16,851.878 1395.5,851.5C 1074.33,852.5 753,852.833 431.5,852.5C 440.638,851.175 449.972,850.341 459.5,850C 391.665,849.833 323.999,849.333 256.5,848.5 Z"/></g>
<g><path style="opacity:1" fill="#3c3938" d="M 1573.5,849.5 C 1575.3,850.73 1577.3,851.396 1579.5,851.5C 1579.5,851.833 1579.5,852.167 1579.5,852.5C 1568.83,852.5 1558.17,852.5 1547.5,852.5C 1528.66,852.83 1509.99,852.497 1491.5,851.5C 1516.52,851.223 1541.52,851.223 1566.5,851.5C 1569.27,851.471 1571.6,850.805 1573.5,849.5 Z"/></g>
<g><path style="opacity:1" fill="#6b645f" d="M 204.5,852.5 C 279.993,852.412 355.66,852.412 431.5,852.5C 431.5,852.833 431.5,853.167 431.5,853.5C 355.828,853.758 280.161,853.425 204.5,852.5 Z"/></g>
<g><path style="opacity:1" fill="#837c78" d="M 1395.5,851.5 C 1427.5,851.5 1459.5,851.5 1491.5,851.5C 1509.99,852.497 1528.66,852.83 1547.5,852.5C 1175.68,853.404 803.682,853.737 431.5,853.5C 431.5,853.167 431.5,852.833 431.5,852.5C 753,852.833 1074.33,852.5 1395.5,851.5 Z"/></g>
<g><path style="opacity:1" fill="#f1f1f2" d="M 218.5,865.5 C 231.46,866.713 244.46,867.38 257.5,867.5C 687,866.833 1116.5,866.166 1546,865.5C 1552.17,865.667 1558.33,865.833 1564.5,866C 1568.2,868.958 1568.2,871.624 1564.5,874C 1115.83,875.582 667.166,875.915 218.5,875C 217.208,871.835 217.208,868.668 218.5,865.5 Z"/></g>
<g><path style="opacity:1" fill="#f0f1f1" d="M 206.5,878.5 C 212.832,878.944 219.165,879.444 225.5,880C 261.167,880.167 296.833,880.333 332.5,880.5C 725.831,880.795 1119.16,880.462 1512.5,879.5C 1521.5,879.667 1530.5,879.833 1539.5,880C 1543.38,882.539 1543.38,884.872 1539.5,887C 1478.17,887.333 1416.83,887.667 1355.5,888C 1027.82,888.415 700.154,888.582 372.5,888.5C 317.815,888.77 263.148,887.936 208.5,886C 206.722,883.865 206.055,881.365 206.5,878.5 Z"/></g>
<g><path style="opacity:1" fill="#696567" d="M 535.5,893.5 C 529.5,893.5 523.5,893.5 517.5,893.5C 498.487,893.326 479.487,893.66 460.5,894.5C 426.167,894.5 391.833,894.5 357.5,894.5C 353.298,894.817 349.298,894.483 345.5,893.5C 409.003,893.151 472.336,893.151 535.5,893.5 Z"/></g>
<g><path style="opacity:1" fill="#a1a2a5" d="M 517.5,894.5 C 517.5,894.167 517.5,893.833 517.5,893.5C 523.5,893.5 529.5,893.5 535.5,893.5C 545.506,893.334 555.506,893.5 565.5,894C 567.066,894.608 568.4,895.442 569.5,896.5C 569.719,897.675 569.386,898.675 568.5,899.5C 566.253,900.374 563.92,900.708 561.5,900.5C 563.718,899.984 565.718,898.984 567.5,897.5C 566.619,896.029 565.286,895.196 563.5,895C 548.17,894.5 532.837,894.333 517.5,894.5 Z"/></g>
<g><path style="opacity:1" fill="#e3e2dd" d="M 1411.5,893.5 C 1431.83,893.5 1452.17,893.5 1472.5,893.5C 1475.13,895.54 1475.13,897.707 1472.5,900C 1446.83,900.658 1421.16,900.492 1395.5,899.5C 1391.77,898.023 1387.77,897.189 1383.5,897C 1393.08,896.597 1402.42,895.43 1411.5,893.5 Z"/></g>
<g><path style="opacity:1" fill="#efefee" d="M 272.5,892.5 C 275.287,893.477 278.287,893.81 281.5,893.5C 291.325,894.33 301.325,894.83 311.5,895C 311.043,895.414 310.709,895.914 310.5,896.5C 311.665,897.584 312.998,898.417 314.5,899C 293.329,899.168 272.329,899.668 251.5,900.5C 243.88,902.065 241.88,899.565 245.5,893C 254.494,892.5 263.494,892.334 272.5,892.5 Z"/></g>
<g><path style="opacity:1" fill="#ebedec" d="M 517.5,894.5 C 532.837,894.333 548.17,894.5 563.5,895C 565.286,895.196 566.619,896.029 567.5,897.5C 565.718,898.984 563.718,899.984 561.5,900.5C 536.5,900.5 511.5,900.5 486.5,900.5C 484.31,899.626 483.31,897.959 483.5,895.5C 489.463,894.414 500.797,894.081 517.5,894.5 Z"/></g>
<g><path style="opacity:1" fill="#f1f2f2" d="M 1195.5,893.5 C 1199.64,894.563 1203.97,895.23 1208.5,895.5C 1208.61,897.514 1207.94,899.18 1206.5,900.5C 1018.48,901.653 830.484,901.819 642.5,901C 640.771,899.211 640.104,897.044 640.5,894.5C 825.473,894.776 1010.47,894.442 1195.5,893.5 Z"/></g>
<g><path style="opacity:1" fill="#858883" d="M 1195.5,893.5 C 1201.26,893.436 1206.93,894.103 1212.5,895.5C 1212.35,899.314 1210.35,900.981 1206.5,900.5C 1207.94,899.18 1208.61,897.514 1208.5,895.5C 1203.97,895.23 1199.64,894.563 1195.5,893.5 Z"/></g>
<g><path style="opacity:1" fill="#d6d3cf" d="M 281.5,893.5 C 306.189,893.621 330.856,894.454 355.5,896C 358.01,896.376 360.343,897.21 362.5,898.5C 348.006,899.167 333.672,899.833 319.5,900.5C 296.833,900.5 274.167,900.5 251.5,900.5C 272.329,899.668 293.329,899.168 314.5,899C 312.998,898.417 311.665,897.584 310.5,896.5C 310.709,895.914 311.043,895.414 311.5,895C 301.325,894.83 291.325,894.33 281.5,893.5 Z"/></g>
<g><path style="opacity:1" fill="#d4d4d6" d="M 517.5,893.5 C 517.5,893.833 517.5,894.167 517.5,894.5C 500.797,894.081 489.463,894.414 483.5,895.5C 483.31,897.959 484.31,899.626 486.5,900.5C 484.833,900.5 483.167,900.5 481.5,900.5C 476.833,900.5 472.167,900.5 467.5,900.5C 464.375,899.521 461.042,899.187 457.5,899.5C 457.5,898.167 457.5,896.833 457.5,895.5C 458.791,895.737 459.791,895.404 460.5,894.5C 479.487,893.66 498.487,893.326 517.5,893.5 Z"/></g>
<g><path style="opacity:1" fill="#d9d6cf" d="M 1411.5,893.5 C 1402.42,895.43 1393.08,896.597 1383.5,897C 1387.77,897.189 1391.77,898.023 1395.5,899.5C 1390.17,899.5 1384.83,899.5 1379.5,899.5C 1374.01,898.673 1368.35,898.173 1362.5,898C 1361.37,896.984 1361.7,896.317 1363.5,896C 1379.43,893.902 1395.43,893.069 1411.5,893.5 Z"/></g>
<g><path style="opacity:1" fill="#b1ada8" d="M 272.5,892.5 C 297.006,892.169 321.339,892.502 345.5,893.5C 349.298,894.483 353.298,894.817 357.5,894.5C 388.331,895.332 419.331,895.832 450.5,896C 445.537,897.71 440.537,897.876 435.5,896.5C 434.5,897 433.5,897.5 432.5,898C 434.382,898.198 436.048,898.698 437.5,899.5C 398.169,900.01 358.835,900.343 319.5,900.5C 333.672,899.833 348.006,899.167 362.5,898.5C 360.343,897.21 358.01,896.376 355.5,896C 330.856,894.454 306.189,893.621 281.5,893.5C 278.287,893.81 275.287,893.477 272.5,892.5 Z"/></g>
<g><path style="opacity:1" fill="#a9a6a1" d="M 357.5,894.5 C 391.833,894.5 426.167,894.5 460.5,894.5C 459.791,895.404 458.791,895.737 457.5,895.5C 457.5,896.833 457.5,898.167 457.5,899.5C 461.042,899.187 464.375,899.521 467.5,900.5C 457.479,900.629 447.479,900.296 437.5,899.5C 436.048,898.698 434.382,898.198 432.5,898C 433.5,897.5 434.5,897 435.5,896.5C 440.537,897.876 445.537,897.71 450.5,896C 419.331,895.832 388.331,895.332 357.5,894.5 Z"/></g>
<g><path style="opacity:1" fill="#686464" d="M 1369.5,892.5 C 1363.48,892.929 1357.81,894.762 1352.5,898C 1354.38,898.198 1356.05,898.698 1357.5,899.5C 1354.6,899.875 1351.94,899.375 1349.5,898C 1355.41,893.687 1362.08,891.853 1369.5,892.5 Z"/></g>
<g><path style="opacity:1" fill="#b0adaa" d="M 1369.5,892.5 C 1404,892.168 1438.34,892.502 1472.5,893.5C 1452.17,893.5 1431.83,893.5 1411.5,893.5C 1395.43,893.069 1379.43,893.902 1363.5,896C 1361.7,896.317 1361.37,896.984 1362.5,898C 1368.35,898.173 1374.01,898.673 1379.5,899.5C 1372.17,899.5 1364.83,899.5 1357.5,899.5C 1356.05,898.698 1354.38,898.198 1352.5,898C 1357.81,894.762 1363.48,892.929 1369.5,892.5 Z"/></g>
<g><path style="opacity:1" fill="#787774" d="M 569.5,896.5 C 570.801,897.884 570.801,899.384 569.5,901C 539.997,901.83 510.664,901.664 481.5,900.5C 483.167,900.5 484.833,900.5 486.5,900.5C 511.5,900.5 536.5,900.5 561.5,900.5C 563.92,900.708 566.253,900.374 568.5,899.5C 569.386,898.675 569.719,897.675 569.5,896.5 Z"/></g>
<g><path style="opacity:1" fill="#f4f5f3" d="M 1036.5,908.5 C 1036.57,909.959 1036.23,911.292 1035.5,912.5C 1031.72,914.092 1027.72,914.926 1023.5,915C 936.997,914.948 850.497,915.115 764,915.5C 738.166,915.033 712.333,914.533 686.5,914C 683.351,910.445 683.851,907.945 688,906.5C 804.19,907.166 920.356,907.832 1036.5,908.5 Z"/></g>
<g><path style="opacity:1" fill="#e5e6e5" d="M 459.5,905.5 C 496.484,906.295 533.484,906.795 570.5,907C 571.253,910.801 569.586,913.301 565.5,914.5C 530.185,913.846 494.851,913.179 459.5,912.5C 456.852,910.132 456.852,907.798 459.5,905.5 Z"/></g>
<g><path style="opacity:1" fill="#eff0ec" d="M 1069.5,914.5 C 1069.5,914.167 1069.5,913.833 1069.5,913.5C 1068.74,912.732 1067.74,912.232 1066.5,912C 1069.55,911.821 1072.55,911.321 1075.5,910.5C 1076.62,909.141 1077.96,908.141 1079.5,907.5C 1107.47,906.525 1135.47,906.192 1163.5,906.5C 1163.84,909.157 1163.17,911.49 1161.5,913.5C 1130.84,914.5 1100.17,914.833 1069.5,914.5 Z"/></g>
<g><path style="opacity:1" fill="#d2d5d4" d="M 1079.5,907.5 C 1077.96,908.141 1076.62,909.141 1075.5,910.5C 1072.55,911.321 1069.55,911.821 1066.5,912C 1067.74,912.232 1068.74,912.732 1069.5,913.5C 1059.85,912.755 1050.19,912.422 1040.5,912.5C 1038.83,911.167 1037.17,911.167 1035.5,912.5C 1036.23,911.292 1036.57,909.959 1036.5,908.5C 1050.85,908.68 1065.18,908.347 1079.5,907.5 Z"/></g>
<g><path style="opacity:1" fill="#8e908b" d="M 1040.5,912.5 C 1050.19,912.422 1059.85,912.755 1069.5,913.5C 1069.5,913.833 1069.5,914.167 1069.5,914.5C 1059.61,914.858 1049.95,914.192 1040.5,912.5 Z"/></g>
<g><path style="opacity:1" fill="#e7eaec" d="M 777.5,920.5 C 832.834,920.333 888.168,920.5 943.5,921C 947.882,921.003 949.549,923.169 948.5,927.5C 908.192,928.685 867.859,928.685 827.5,927.5C 801.816,927.887 776.15,928.554 750.5,929.5C 745.329,928.643 744.329,926.143 747.5,922C 757.675,921.83 767.675,921.33 777.5,920.5 Z"/></g>
<g><path style="opacity:1" fill="#e2e2e1" d="M 772.5,938.5 C 770.884,936.584 771.218,935.084 773.5,934C 782.284,932.956 790.951,932.123 799.5,931.5C 848.834,931.667 898.168,931.5 947.5,931C 949.436,930.187 951.436,929.687 953.5,929.5C 953.654,933.025 952.321,935.859 949.5,938C 890.505,939.78 831.505,939.947 772.5,938.5 Z"/></g>
<g><path style="opacity:1" fill="#646463" d="M 769.5,932.5 C 767.444,933.199 765.444,934.199 763.5,935.5C 764.947,936.935 766.614,937.935 768.5,938.5C 763.338,938.251 758.338,937.251 753.5,935.5C 753.709,934.914 754.043,934.414 754.5,934C 759.481,933.252 764.481,932.752 769.5,932.5 Z"/></g>
<g><path style="opacity:1" fill="#949494" d="M 799.5,931.5 C 790.951,932.123 782.284,932.956 773.5,934C 771.218,935.084 770.884,936.584 772.5,938.5C 771.167,938.5 769.833,938.5 768.5,938.5C 766.614,937.935 764.947,936.935 763.5,935.5C 765.444,934.199 767.444,933.199 769.5,932.5C 779.476,931.668 789.476,931.334 799.5,931.5 Z"/></g>
</svg>
